<?xml version="1.0" encoding="utf-8"?>
<!-- Generator: Adobe Illustrator 15.0.2, SVG Export Plug-In . SVG Version: 6.00 Build 0)  -->
<!DOCTYPE svg PUBLIC "-//W3C//DTD SVG 1.1 Tiny//EN" "http://www.w3.org/Graphics/SVG/1.1/DTD/svg11-tiny.dtd">
<svg version="1.1" baseProfile="tiny" id="Layer_1" xmlns="http://www.w3.org/2000/svg" xmlns:xlink="http://www.w3.org/1999/xlink"
	 x="0px" y="0px" width="49.665px" height="49.665px" viewBox="0 0 49.665 49.665" xml:space="preserve">
<g>
	<path fill="#0075FF" d="M24.833,13.835c-4.667,0-7.511,4.72-7.511,10.997c-0.053,6.492,2.844,10.997,7.511,10.997h0.108
		c4.667,0,7.402-4.505,7.402-11.05C32.343,18.556,29.553,13.835,24.833,13.835z"/>
	<path fill="#0075FF" d="M0,0v49.665h49.665V0H0z M24.511,43.501h-0.055c-11.211,0-17.38-8.421-17.38-18.454
		c0-10.515,6.867-18.883,17.971-18.883c11.64,0,17.542,8.637,17.542,18.293C42.589,36.097,35.616,43.501,24.511,43.501z"/>
</g>
</svg>
